nColumns=19
nRows=176
DataType=double
version=3
OpenSimVersion=4.1
endheader
time	ground_force_calcn_r_vx	ground_force_calcn_r_vy	ground_force_calcn_r_vz	ground_force_calcn_r_px	ground_force_calcn_r_py	ground_force_calcn_r_pz	ground_force_calcn_r_mx	ground_force_calcn_r_my	ground_force_calcn_r_mz	ground_force_calcn_l_vx	ground_force_calcn_l_vy	ground_force_calcn_l_vz	ground_force_calcn_l_px	ground_force_calcn_l_py	ground_force_calcn_l_pz	ground_force_calcn_l_mx	ground_force_calcn_l_my	ground_force_calcn_l_mz
0	0	0	0	0	0	0	0	0	0	0	0	0	0	0	0	0	0	0
0.005	0	0	0	0	0	0	0	0	0	0	0	0	0	0	0	0	0	0
0.01	0	0	0	0	0	0	0	0	0	0	0	0	0	0	0	0	0	0
0.015	0	0	0	0	0	0	0	0	0	0	0	0	0	0	0	0	0	0
0.02	0	0	0	0	0	0	0	0	0	0	0	0	0	0	0	0	0	0
0.025	0	0	0	0	0	0	0	0	0	0	0	0	0	0	0	0	0	0
0.03	0	0	0	0	0	0	0	0	0	0	0	0	0	0	0	0	0	0
0.035	0	0	0	0	0	0	0	0	0	0	0	0	0	0	0	0	0	0
0.04	0	0	0	0	0	0	0	0	0	0	0	0	0	0	0	0	0	0
0.045	0	0	0	0	0	0	0	0	0	0	0	0	0	0	0	0	0	0
0.05	0	0	0	0	0	0	0	0	0	0	0	0	0	0	0	0	0	0
0.055	0	0	0	0	0	0	0	0	0	0	0	0	0	0	0	0	0	0
0.06	0	0	0	0	0	0	0	0	0	0	0	0	0	0	0	0	0	0
0.065	0	0	0	0	0	0	0	0	0	-18.5604	19.2869	-18.918	1.23636	0	-0.328733	0.692007	-0.719096	0.705343
0.07	0	0	0	0	0	0	0	0	0	-82.5475	136.47	6.46644	1.18041	0	-0.36092	4.46698	-7.38496	-0.349925
0.075	0	0	0	0	0	0	0	0	0	-173.56	337.291	53.8302	1.08994	0	-0.40611	4.1606	-8.08558	-1.29043
0.08	0	0	0	0	0	0	0	0	0	-271.999	618.233	125.313	1.08999	0	-0.397523	0.85659	-1.94697	-0.39464
0.085	0	0	0	0	0	0	0	0	0	-343.891	944.441	213.015	1.08349	0	-0.387074	-3.54186	9.72715	2.19392
0.09	0	0	0	0	0	0	0	0	0	-366.302	1290.58	289.316	1.07218	0	-0.374457	-4.61757	16.2689	3.64709
0.095	0	0	0	0	0	0	0	0	0	-358.799	1653.36	325.261	1.04883	0	-0.361543	-1.32709	6.1153	1.20304
0.1	0	0	0	0	0	0	0	0	0	-353.426	2017.5	300.119	1.0157	0	-0.351733	2.53831	-14.4897	-2.15546
0.105	0	0	0	0	0	0	0	0	0	-351.625	2348.16	209.825	0.985509	0	-0.345593	4.34328	-29.0046	-2.59177
0.11	0	0	0	0	0	0	0	0	0	-352.635	2619.96	70.7823	0.961272	0	-0.341898	4.28215	-31.815	-0.859532
0.115	0	0	0	0	0	0	0	0	0	-351.374	2825.02	-86.0644	0.940497	0	-0.339433	3.33537	-26.8161	0.816953
0.12	0	0	0	0	0	0	0	0	0	-331.18	2961.68	-225.533	0.920779	0	-0.337614	2.19865	-19.6621	1.49728
0.125	0	0	0	0	0	0	0	0	0	-283.61	3034.39	-319.768	0.896681	0	-0.336521	1.09304	-11.6946	1.23239
0.13	0	0	0	0	0	0	0	0	0	-199.609	3049.17	-352.491	0.865545	0	-0.335923	0.165379	-2.52628	0.292043
0.135	0	0	0	0	0	0	0	0	0	-77.8499	3018.53	-329.887	0.829604	0	-0.335424	-0.126285	4.89654	-0.535131
0.14	0	0	0	0	0	0	0	0	0	58.1523	2955.31	-276.141	0.792407	0	-0.334614	0.1281	6.51007	-0.608294
0.145	0	0	0	0	0	0	0	0	0	181.337	2858.14	-221.107	0.757039	0	-0.333969	0.146082	2.30248	-0.178121
0.15	0	0	0	0	0	0	0	0	0	283.545	2719.03	-176.097	0.725335	0	-0.333692	-0.510609	-4.89644	0.317117
0.155	0	0	0	0	0	0	0	0	0	368.375	2539.51	-135.298	0.698086	0	-0.333574	-1.77266	-12.2204	0.651065
0.16	0	0	0	0	0	0	0	0	0	434.853	2319.87	-89.8113	0.674325	0	-0.333642	-4.08814	-21.8096	0.844335
0.165	0	0	0	0	0	0	0	0	0	477.814	2054.27	-42.1607	0.651042	0	-0.33487	-8.64866	-37.1833	0.763128
0.17	0	0	0	0	0	0	0	0	0	495.907	1738.41	-4.45036	0.621588	0	-0.33866	-15.4692	-54.2274	0.138823
0.175	0	0	0	0	0	0	0	0	0	497.439	1380.19	7.61661	0.574626	0	-0.346037	-21.2984	-59.0943	-0.326114
0.18	0	0	0	0	0	0	0	0	0	489.373	1003.08	-14.2297	0.492308	0	-0.354463	-18.9356	-38.813	0.550602
0.185	0	0	0	0	0	0	0	0	0	466.569	645.064	-65.3085	0.357642	0	-0.342215	3.86409	5.34238	-0.54088
0.19	0	0	0	0	0	0	0	0	0	416.487	346.508	-124.645	0.186603	0	-0.237439	46.7643	38.9068	-13.9955
0.195	0	0	0	0	0	0	0	0	0	333.975	136.279	-163.521	0.38118	0	0.0652321	58.9051	24.0362	-28.8411
0.2	0	0	0	0	0	0	0	0	0	228.039	15.2245	-155.299	0.860628	0	0.409956	11.41	0.761765	-7.77047
0.205	0	0	0	0	0	0	0	0	0	0	0	0	0	0	0	0	0	0
0.21	0	0	0	0	0	0	0	0	0	0	0	0	0	0	0	0	0	0
0.215	0	0	0	0	0	0	0	0	0	0	0	0	0	0	0	0	0	0
0.22	0	0	0	0	0	0	0	0	0	0	0	0	0	0	0	0	0	0
0.225	0	0	0	0	0	0	0	0	0	0	0	0	0	0	0	0	0	0
0.23	0	0	0	0	0	0	0	0	0	0	0	0	0	0	0	0	0	0
0.235	0	0	0	0	0	0	0	0	0	0	0	0	0	0	0	0	0	0
0.24	0	0	0	0	0	0	0	0	0	0	0	0	0	0	0	0	0	0
0.245	0	0	0	0	0	0	0	0	0	0	0	0	0	0	0	0	0	0
0.25	0	0	0	0	0	0	0	0	0	0	0	0	0	0	0	0	0	0
0.255	0	0	0	0	0	0	0	0	0	0	0	0	0	0	0	0	0	0
0.26	0	0	0	0	0	0	0	0	0	0	0	0	0	0	0	0	0	0
0.265	0	0	0	0	0	0	0	0	0	0	0	0	0	0	0	0	0	0
0.27	0	0	0	0	0	0	0	0	0	0	0	0	0	0	0	0	0	0
0.275	0	0	0	0	0	0	0	0	0	0	0	0	0	0	0	0	0	0
0.28	0	0	0	0	0	0	0	0	0	0	0	0	0	0	0	0	0	0
0.285	0	0	0	0	0	0	0	0	0	0	0	0	0	0	0	0	0	0
0.29	0	0	0	0	0	0	0	0	0	0	0	0	0	0	0	0	0	0
0.295	0	0	0	0	0	0	0	0	0	0	0	0	0	0	0	0	0	0
0.3	0	0	0	0	0	0	0	0	0	0	0	0	0	0	0	0	0	0
0.305	0	0	0	0	0	0	0	0	0	0	0	0	0	0	0	0	0	0
0.31	0	0	0	0	0	0	0	0	0	0	0	0	0	0	0	0	0	0
0.315	0	0	0	0	0	0	0	0	0	0	0	0	0	0	0	0	0	0
0.32	0	0	0	0	0	0	0	0	0	0	0	0	0	0	0	0	0	0
0.325	-41.8214	41.5625	5.67737	1.29992	0	-0.348399	-3.13092	3.11153	0.425031	0	0	0	0	0	0	0	0	0
0.33	-95.4788	183.896	-30.471	1.15329	0	-0.255647	-0.137211	0.264275	-0.0437895	0	0	0	0	0	0	0	0	0
0.335	-176.146	416.761	-86.7833	1.09619	0	-0.26106	0.511823	-1.21097	0.252164	0	0	0	0	0	0	0	0	0
0.34	-268.08	728.669	-154.731	1.08858	0	-0.272463	0.456291	-1.24024	0.263362	0	0	0	0	0	0	0	0	0
0.345	-336.193	1085.75	-219.397	1.08426	0	-0.280954	0.629787	-2.03392	0.410993	0	0	0	0	0	0	0	0	0
0.35	-356.093	1471.06	-259.738	1.07835	0	-0.2883	0.141432	-0.584273	0.103162	0	0	0	0	0	0	0	0	0
0.355	-352.713	1871.22	-253.902	1.0662	0	-0.294036	-1.5451	8.19705	-1.11224	0	0	0	0	0	0	0	0	0
0.36	-372.822	2242.83	-198.936	1.05123	0	-0.297873	-2.97288	17.8843	-1.58631	0	0	0	0	0	0	0	0	0
0.365	-431.458	2530.34	-107.49	1.03993	0	-0.300478	-3.40812	19.9874	-0.849074	0	0	0	0	0	0	0	0	0
0.37	-507.262	2719.97	8.19454	1.03129	0	-0.30273	-3.66382	19.6456	0.059187	0	0	0	0	0	0	0	0	0
0.375	-562.997	2838.46	134.491	1.02017	0	-0.305026	-5.07293	25.5762	1.21184	0	0	0	0	0	0	0	0	0
0.38	-575.107	2914.2	245.384	1.00277	0	-0.306941	-6.33056	32.0784	2.70109	0	0	0	0	0	0	0	0	0
0.385	-541.014	2955.79	312.604	0.977046	0	-0.30781	-4.86211	26.5638	2.80938	0	0	0	0	0	0	0	0	0
0.39	-459.351	2959.74	319.334	0.942397	0	-0.308487	-1.67654	10.8025	1.16551	0	0	0	0	0	0	0	0	0
0.395	-328.713	2927.47	276.039	0.900347	0	-0.310125	-0.018749	0.166976	0.0157446	0	0	0	0	0	0	0	0	0
0.4	-169.221	2869.94	211.056	0.856069	0	-0.312445	-0.260012	4.40971	0.324292	0	0	0	0	0	0	0	0	0
0.405	-17.5044	2791.27	148.435	0.815556	0	-0.314017	-0.11219	17.8899	0.951357	0	0	0	0	0	0	0	0	0
0.41	106.477	2685.17	96.9792	0.781499	0	-0.31442	1.0958	27.6342	0.998054	0	0	0	0	0	0	0	0	0
0.415	208.238	2547.65	56.298	0.753286	0	-0.314087	2.40414	29.4129	0.649966	0	0	0	0	0	0	0	0	0
0.42	296.859	2375.19	23.2281	0.728502	0	-0.313477	3.76668	30.1374	0.294728	0	0	0	0	0	0	0	0	0
0.425	368.125	2157.15	-2.51892	0.703713	0	-0.312738	5.81426	34.0706	-0.0397844	0	0	0	0	0	0	0	0	0
0.43	412.145	1888.67	-16.0058	0.675475	0	-0.312116	8.20664	37.6072	-0.318708	0	0	0	0	0	0	0	0	0
0.435	431.052	1581.73	-5.75606	0.641397	0	-0.311866	9.17243	33.658	-0.122484	0	0	0	0	0	0	0	0	0
0.44	431.84	1255.87	31.9609	0.597209	0	-0.313448	6.17339	17.9533	0.456899	0	0	0	0	0	0	0	0	0
0.445	415.652	925.826	82.1183	0.531116	0	-0.322771	-3.56754	-7.94636	-0.704821	0	0	0	0	0	0	0	0	0
0.45	383.406	610.966	120.146	0.42291	0	-0.35541	-21.2692	-33.8929	-6.66502	0	0	0	0	0	0	0	0	0
0.455	338.97	341.799	127.223	0.239141	0	-0.442606	-39.9698	-40.3033	-15.0015	0	0	0	0	0	0	0	0	0
0.46	284.569	145.526	98.4094	0.271526	0	-0.57752	-37.9053	-19.3844	-13.1084	0	0	0	0	0	0	0	0	0
0.465	216.872	27.8252	43.0886	0.41754	0	-0.585323	-7.94889	-1.01986	-1.5793	0	0	0	0	0	0	0	0	0
0.47	0	0	0	0	0	0	0	0	0	0	0	0	0	0	0	0	0	0
0.475	0	0	0	0	0	0	0	0	0	0	0	0	0	0	0	0	0	0
0.48	0	0	0	0	0	0	0	0	0	0	0	0	0	0	0	0	0	0
0.485	0	0	0	0	0	0	0	0	0	0	0	0	0	0	0	0	0	0
0.49	0	0	0	0	0	0	0	0	0	0	0	0	0	0	0	0	0	0
0.495	0	0	0	0	0	0	0	0	0	0	0	0	0	0	0	0	0	0
0.5	0	0	0	0	0	0	0	0	0	0	0	0	0	0	0	0	0	0
0.505	0	0	0	0	0	0	0	0	0	0	0	0	0	0	0	0	0	0
0.51	0	0	0	0	0	0	0	0	0	0	0	0	0	0	0	0	0	0
0.515	0	0	0	0	0	0	0	0	0	0	0	0	0	0	0	0	0	0
0.52	0	0	0	0	0	0	0	0	0	0	0	0	0	0	0	0	0	0
0.525	0	0	0	0	0	0	0	0	0	0	0	0	0	0	0	0	0	0
0.53	0	0	0	0	0	0	0	0	0	0	0	0	0	0	0	0	0	0
0.535	0	0	0	0	0	0	0	0	0	0	0	0	0	0	0	0	0	0
0.54	0	0	0	0	0	0	0	0	0	0	0	0	0	0	0	0	0	0
0.545	0	0	0	0	0	0	0	0	0	0	0	0	0	0	0	0	0	0
0.55	0	0	0	0	0	0	0	0	0	0	0	0	0	0	0	0	0	0
0.555	0	0	0	0	0	0	0	0	0	0	0	0	0	0	0	0	0	0
0.56	0	0	0	0	0	0	0	0	0	0	0	0	0	0	0	0	0	0
0.565	0	0	0	0	0	0	0	0	0	0	0	0	0	0	0	0	0	0
0.57	0	0	0	0	0	0	0	0	0	0	0	0	0	0	0	0	0	0
0.575	0	0	0	0	0	0	0	0	0	0	0	0	0	0	0	0	0	0
0.58	0	0	0	0	0	0	0	0	0	0	0	0	0	0	0	0	0	0
0.585	0	0	0	0	0	0	0	0	0	0	0	0	0	0	0	0	0	0
0.59	0	0	0	0	0	0	0	0	0	-26.2811	29.8833	-30.9273	1.24296	0	-0.320085	2.1077	-2.39659	2.48032
0.595	0	0	0	0	0	0	0	0	0	-96.256	167.441	-7.97177	1.18341	0	-0.410058	6.19365	-10.7741	0.512949
0.6	0	0	0	0	0	0	0	0	0	-191.89	398.695	36.9158	1.13449	0	-0.444088	3.87787	-8.05717	-0.746027
0.605	0	0	0	0	0	0	0	0	0	-292.154	716.36	110.827	1.13186	0	-0.431317	-1.02997	2.52548	0.390716
0.61	0	0	0	0	0	0	0	0	0	-363.628	1082.82	208.864	1.12334	0	-0.415171	-5.42222	16.1465	3.11446
0.615	0	0	0	0	0	0	0	0	0	-390.136	1475.91	300.593	1.11131	0	-0.398057	-5.27153	19.9425	4.06162
0.62	0	0	0	0	0	0	0	0	0	-400.548	1886.53	348.111	1.08785	0	-0.3829	-0.947409	4.46219	0.823382
0.625	0	0	0	0	0	0	0	0	0	-417.939	2281.78	318.968	1.05721	0	-0.372768	3.43774	-18.7687	-2.62365
0.63	0	0	0	0	0	0	0	0	0	-429.882	2617.06	210.426	1.0314	0	-0.367175	5.00455	-30.467	-2.44971
0.635	0	0	0	0	0	0	0	0	0	-438.733	2872.48	51.8212	1.01144	0	-0.3642	4.09152	-26.7881	-0.483272
0.64	0	0	0	0	0	0	0	0	0	-448.419	3045.2	-109.588	0.993786	0	-0.362271	2.59809	-17.6436	0.634941
0.645	0	0	0	0	0	0	0	0	0	-445.057	3141.75	-228.528	0.975917	0	-0.360711	1.9801	-13.9779	1.01674
0.65	0	0	0	0	0	0	0	0	0	-414.928	3181.17	-278.585	0.953406	0	-0.359575	1.73756	-13.3215	1.16661
0.655	0	0	0	0	0	0	0	0	0	-341.778	3176.89	-260.052	0.923978	0	-0.359211	0.939383	-8.73172	0.714756
0.66	0	0	0	0	0	0	0	0	0	-221.218	3135.09	-199.844	0.888386	0	-0.359509	0.0817123	-1.15802	0.0738171
0.665	0	0	0	0	0	0	0	0	0	-75.3494	3063.38	-135.179	0.849228	0	-0.359901	-0.101283	4.11774	-0.181706
0.67	0	0	0	0	0	0	0	0	0	66.2453	2965.84	-90.0495	0.811206	0	-0.360054	0.0787541	3.52587	-0.107053
0.675	0	0	0	0	0	0	0	0	0	187.618	2837.7	-62.1786	0.778079	0	-0.359789	-0.100392	-1.51842	0.0332711
0.68	0	0	0	0	0	0	0	0	0	285.77	2676.72	-37.2895	0.750642	0	-0.358982	-0.872718	-8.17447	0.113879
0.685	0	0	0	0	0	0	0	0	0	358.608	2481.13	-4.98404	0.726555	0	-0.357878	-2.9059	-20.1052	0.040387
0.69	0	0	0	0	0	0	0	0	0	407.53	2246.37	29.1026	0.702397	0	-0.357561	-7.31987	-40.3483	-0.522727
0.695	0	0	0	0	0	0	0	0	0	438.392	1968.06	49.5675	0.673126	0	-0.359294	-13.9185	-62.4838	-1.57372
0.7	0	0	0	0	0	0	0	0	0	459.607	1649	40.4786	0.631782	0	-0.363775	-19.5475	-70.1333	-1.72159
0.705	0	0	0	0	0	0	0	0	0	475.26	1302.62	-3.71862	0.570355	0	-0.368533	-17.4297	-47.7724	0.136377
0.71	0	0	0	0	0	0	0	0	0	475.366	953.795	-76.2166	0.483123	0	-0.361608	2.42461	4.86484	-0.388744
0.715	0	0	0	0	0	0	0	0	0	446.09	630.164	-155.464	0.375353	0	-0.312474	43.9865	62.1371	-15.3294
0.72	0	0	0	0	0	0	0	0	0	383.179	357.94	-207.962	0.274462	0	-0.175947	85.4254	79.7987	-46.3627
0.725	0	0	0	0	0	0	0	0	0	293.383	157.488	-202.111	0.478919	0	0.114211	83.2113	44.6679	-57.3239
0.73	0	0	0	0	0	0	0	0	0	190.545	35.1717	-133.639	1.0154	0	0.554967	32.3262	5.96692	-22.6721
0.735	0	0	0	0	0	0	0	0	0	0	0	0	0	0	0	0	0	0
0.74	0	0	0	0	0	0	0	0	0	0	0	0	0	0	0	0	0	0
0.745	0	0	0	0	0	0	0	0	0	0	0	0	0	0	0	0	0	0
0.75	0	0	0	0	0	0	0	0	0	0	0	0	0	0	0	0	0	0
0.755	0	0	0	0	0	0	0	0	0	0	0	0	0	0	0	0	0	0
0.76	0	0	0	0	0	0	0	0	0	0	0	0	0	0	0	0	0	0
0.765	0	0	0	0	0	0	0	0	0	0	0	0	0	0	0	0	0	0
0.77	0	0	0	0	0	0	0	0	0	0	0	0	0	0	0	0	0	0
0.775	0	0	0	0	0	0	0	0	0	0	0	0	0	0	0	0	0	0
0.78	0	0	0	0	0	0	0	0	0	0	0	0	0	0	0	0	0	0
0.785	0	0	0	0	0	0	0	0	0	0	0	0	0	0	0	0	0	0
0.79	0	0	0	0	0	0	0	0	0	0	0	0	0	0	0	0	0	0
0.795	0	0	0	0	0	0	0	0	0	0	0	0	0	0	0	0	0	0
0.8	0	0	0	0	0	0	0	0	0	0	0	0	0	0	0	0	0	0
0.805	0	0	0	0	0	0	0	0	0	0	0	0	0	0	0	0	0	0
0.81	0	0	0	0	0	0	0	0	0	0	0	0	0	0	0	0	0	0
0.815	0	0	0	0	0	0	0	0	0	0	0	0	0	0	0	0	0	0
0.82	0	0	0	0	0	0	0	0	0	0	0	0	0	0	0	0	0	0
0.825	0	0	0	0	0	0	0	0	0	0	0	0	0	0	0	0	0	0
0.83	0	0	0	0	0	0	0	0	0	0	0	0	0	0	0	0	0	0
0.835	0	0	0	0	0	0	0	0	0	0	0	0	0	0	0	0	0	0
0.84	0	0	0	0	0	0	0	0	0	0	0	0	0	0	0	0	0	0
0.845	0	0	0	0	0	0	0	0	0	0	0	0	0	0	0	0	0	0
0.85	0	0	0	0	0	0	0	0	0	0	0	0	0	0	0	0	0	0
0.855	0	0	0	0	0	0	0	0	0	0	0	0	0	0	0	0	0	0
0.86	0	0	0	0	0	0	0	0	0	0	0	0	0	0	0	0	0	0
0.865	0	0	0	0	0	0	0	0	0	0	0	0	0	0	0	0	0	0
0.87	-54.4425	68.0391	-29.4956	1.24934	0	-0.27914	2.08878	-2.61044	1.13165	0	0	0	0	0	0	0	0	0
0.875	-118.95	234.57	-67.0936	1.1576	0	-0.278627	2.64548	-5.21691	1.49218	0	0	0	0	0	0	0	0	0
